:SAMPLES-PER-SECOND 30
:FRAME-RANGE 1-564
:FULLY-SPECIFIED
:DEGREES
142
root  32.3999 38.6591 114.428 170.185 -0.0385132 175.565
RightUpLeg  21.9054 14.4373 1.13017
RightLeg  32.0296 7.90841 5.0736
RightFoot  -5.99293 -0.782012 15.7714
RightToes  -1.74624e-010 0 -3.6325e-017
Spine  12.2035 6.68922 7.77917
Spine1  -0.327417 9.08727 -11.2441
HEad  6.85925 42.1734 -2.14737
LeftShoulder1  2.72909 -2.78289 -37.3017
LeftArm  15.4986 21.3949 -26.6005
LeftForeArm  -8.69291 -13.4336 -13.1598
LeftHand  -1.4028 -5.83858 14.7523
RightShoulder  14.813 14.9751 68.1464
RightArm  24.8939 11.2593 -0.964689
RightForeArm  -0.248299 16.6889 8.91627
RightHand  1.1097 20.0608 4.51835
LeftUpLeg  -8.84735 -1.2449 -6.13478
LeftLeg  9.99942 8.01613 2.74009
LeftFoot  2.15434 -0.544251 4.48725
LeftToes  -6.43926e-010 8.38805e-011 -3.16407e-011
143
root  32.1169 38.6955 112.967 169.958 -2.40817 174.779
RightUpLeg  15.1121 12.7363 -1.06792
RightLeg  45.3414 7.43955 7.69981
RightFoot  4.43466 -2.53754 18.3915
RightToes  -1.74624e-010 0 -3.6325e-017
Spine  12.3751 7.25205 7.29728
Spine1  0.0320876 9.58426 -11.8159
HEad  6.55458 40.5765 -2.99373
LeftShoulder1  2.7441 -2.82387 -37.2596
LeftArm  18.0411 19.9125 -25.8971
LeftForeArm  -18.735 -17.0942 -10.7347
LeftHand  -1.222 -4.96888 13.9402
RightShoulder  15.7622 16.0075 68.5919
RightArm  25.2513 11.4308 -0.435442
RightForeArm  -0.762827 17.0149 8.67459
RightHand  1.35167 20.2711 5.55788
LeftUpLeg  -6.9751 -1.99354 -8.36379
LeftLeg  11.3575 6.36755 2.91211
LeftFoot  1.65007 -0.79789 6.91074
LeftToes  -6.43926e-010 8.38805e-011 -3.16407e-011
144
root  31.835 38.7828 111.53 169.477 -5.77901 174.067
RightUpLeg  9.63262 11.3686 -1.95234
RightLeg  54.9675 5.03025 7.282
RightFoot  9.5799 -3.21612 17.6543
RightToes  -1.74624e-010 0 -3.6325e-017
Spine  13.0801 7.31115 6.91115
Spine1  -0.338281 9.56829 -12.1281
HEad  6.75371 38.948 -3.63912
LeftShoulder1  2.76679 -2.80053 -37.7609
LeftArm  20.9638 17.5067 -24.1191
LeftForeArm  -27.8815 -21.0351 -7.78972
LeftHand  -1.34217 -3.92811 16.8983
RightShoulder  16.9269 17.2983 69.0106
RightArm  24.5719 12.0917 0.268024
RightForeArm  -0.819438 17.2241 8.46567
RightHand  1.35181 20.0574 5.6112
LeftUpLeg  -4.17235 -2.78247 -10.597
LeftLeg  11.9968 4.35656 3.01389
LeftFoot  -0.231473 -0.764512 7.86178
LeftToes  -6.43926e-010 8.38805e-011 -3.16407e-011
145
root  31.5904 38.9134 110.116 169.121 -9.25302 173.772
RightUpLeg  4.72301 10.2444 -2.34865
RightLeg  61.4082 3.16544 5.78253
RightFoot  4.26721 -1.95803 14.431
RightToes  -1.74624e-010 0 -3.6325e-017
Spine  13.7099 7.50184 7.25958
Spine1  -0.7236 9.81325 -12.7133
HEad  7.98971 36.935 -3.39773
LeftShoulder1  2.80267 -2.90905 -37.5859
LeftArm  16.7088 14.0638 -23.4861
LeftForeArm  -30.7174 -22.5491 -6.86824
LeftHand  -1.28449 -1.7492 20.921
RightShoulder  17.8594 18.4096 69.107
RightArm  23.9345 13.4738 0.976313
RightForeArm  -1.67717 17.5101 8.28176
RightHand  1.19245 19.8888 4.9298
LeftUpLeg  -0.951762 -2.54091 -11.9556
LeftLeg  11.7266 1.39312 2.73231
LeftFoot  -2.19144 -0.666286 8.47559
LeftToes  -6.43926e-010 8.38805e-011 -3.16407e-011
146
root  31.3463 39.1535 108.684 168.628 -13.3379 174.259
RightUpLeg  0.613941 8.8351 -1.98514
RightLeg  63.4695 1.40547 2.50815
RightFoot  1.63118 -1.18653 10.5071
RightToes  -1.74624e-010 0 -3.6325e-017
Spine  14.1925 7.26122 8.3962
Spine1  -1.33568 9.83604 -12.9272
HEad  9.24756 34.7221 -3.46008
LeftShoulder1  2.83818 -3.10488 -36.8564
LeftArm  12.217 10.4101 -23.0825
LeftForeArm  -34.4273 -23.9032 -6.66224
LeftHand  -1.18984 -0.278443 24.2613
RightShoulder  18.935 19.833 68.8589
RightArm  23.0814 14.9212 1.45259
RightForeArm  -3.94339 18.0725 7.95734
RightHand  1.19506 19.8695 4.94598
LeftUpLeg  3.05929 -1.90284 -12.0962
LeftLeg  10.1319 -2.72965 2.20965
LeftFoot  -3.45488 -0.608861 9.11502
LeftToes  -6.43926e-010 8.38805e-011 -3.16407e-011
147
root  31.135 39.3639 107.288 168.247 -17.6825 174.988
RightUpLeg  -3.04164 7.74121 -1.81315
RightLeg  62.2109 -0.149193 -0.847196
RightFoot  -0.647099 -0.88468 9.38455
RightToes  -1.74624e-010 0 -3.6325e-017
Spine  14.7853 6.93021 9.51864
Spine1  -2.24179 9.75836 -12.9829
HEad  10.3997 32.2675 -3.59357
LeftShoulder1  2.88658 -3.31811 -36.2443
LeftArm  7.67982 6.25192 -22.4133
LeftForeArm  -36.7929 -25.0969 -6.95551
LeftHand  -1.26953 -1.20764 22.3183
RightShoulder  19.8578 21.3472 67.9892
RightArm  22.1537 16.5095 2.03117
RightForeArm  -6.7066 18.9666 7.42801
RightHand  1.18802 19.5784 4.97948
LeftUpLeg  6.73661 -1.17766 -11.525
LeftLeg  8.59828 -7.35522 1.84115
LeftFoot  -4.54601 -0.541376 9.55732
LeftToes  -6.43926e-010 8.38805e-011 -3.16407e-011
148
root  30.9303 39.5321 105.911 167.895 -21.6645 175.853
RightUpLeg  -5.89843 7.82901 -1.89147
RightLeg  57.7465 -1.02784 -2.21077
RightFoot  -3.78226 -0.489312 7.00717
RightToes  -1.74624e-010 0 -3.6325e-017
Spine  15.0342 6.72414 10.9394
Spine1  -2.60844 9.90782 -13.2289
HEad  10.3244 29.7607 -4.45972
LeftShoulder1  2.96956 -3.59385 -35.7845
LeftArm  4.18933 1.74381 -21.4794
LeftForeArm  -39.1423 -26.1895 -7.29074
LeftHand  -1.07131 0.532054 25.4333
RightShoulder  20.6734 23.0211 66.5667
RightArm  20.9287 18.384 2.47078
RightForeArm  -9.62346 19.9883 6.86785
RightHand  1.28837 19.4935 5.46196
LeftUpLeg  9.96244 -0.161182 -10.1938
LeftLeg  7.39436 -12.1025 1.48826
LeftFoot  -5.7231 -0.450083 9.85088
LeftToes  -6.43926e-010 8.38805e-011 -3.16407e-011
